max v2;#N vpatcher 553 44 972 226;#P window setfont "Sans Serif" 9.;#P window linecount 1;#P comment 283 144 109 196617 contact@tommays.net;#P comment 283 131 100 196617 patch by Tom Mays;#P newex 21 85 155 196617 prepend $1;#P newex 21 108 70 196617 prepend store;#N coll switchstate 1;#P newobj 21 132 121 196617 coll switchstate 1;#B color 5;#P newex 21 57 49 196617 zl slice 1;#P newex 21 32 291 196617 r $1;#P comment 238 73 135 196617 arg 1 - variable name;#P connect 1 0 2 0;#P connect 2 0 5 0;#P connect 5 0 4 0;#P connect 4 0 3 0;#P pop;