max v2;#N vpatcher 51 44 1246 854;#P origin 2 -62;#P bpatcher 893 49 278 647 0 0 visca-controlpanel.mxt 0 cam4;#P objectname visca-controlpanel[3];#P user panel 889 45 283 660;#X brgb 114 153 111;#X frgb 0 0 0;#X border 1;#X rounded 0;#X shadow 0;#X done;#P window setfont "Sans Serif" 9.;#P window linecount 1;#P comment 262 729 286 196617 (you don't need VISCA_client when VISCA_server is present);#P window setfont "Sans Serif" 18.;#P comment 260 706 346 196626 Put this in your patch for remote use;#P window setfont "Sans Serif" 9.;#P comment 125 728 103 196617 choose the server IP;#N vpatcher 10 59 247 232;#P button 100 84 15 0;#P outlet 7 126 15 0;#P inlet 15 50 15 0;#P window setfont "Sans Serif" 9.;#P newex 8 94 67 196617 prepend host;#P newex 118 83 62 196617 prepend set;#P newex 114 51 54 196617 route text;#P newex 50 50 50 196617 loadbang;#P inlet 114 31 15 0;#P outlet 98 127 15 0;#P connect 5 0 7 0;#P connect 6 0 5 0;#P connect 4 0 0 0;#P connect 2 0 0 0;#P connect 8 0 0 0;#P connect 3 0 8 0;#P connect 1 0 3 0;#P connect 3 0 4 0;#P pop;#P hidden newobj 36 709 13 196617 p;#P user textedit 123 707 251 726 32896 3 9 192.168.1.9;#P message 49 709 75 196617 192.168.1.9;#P newex 49 723 69 196617 VISCA_client;#P user panel 32 708 582 35;#X brgb 191 191 191;#X frgb 0 0 0;#X border 1;#X rounded 0;#X shadow 0;#X done;#P window setfont "Sans Serif" 20.;#P comment 292 784 139 196628 VISCA Server;#P window setfont "Sans Serif" 9.;#P newex 472 764 32 196617 print;#P newex 472 744 72 196617 r visca_reply;#P window setfont "Sans Serif" 20.;#N vpatcher 10 59 558 280;#P window setfont "Sans Serif" 9.;#P window linecount 1;#P newex 7 159 50 196617 print;#P message 7 130 84 196617 cameras ready;#P newex 7 109 50 196617 del 500;#P window linecount 0;#P message 220 57 14 196617 1;#P window linecount 1;#P newex 235 57 69 196617 s serial.reply;#P newex 341 131 58 196617 pipe 50;#P outlet 345 165 15 0;#P newex 137 98 50 196617 deferlow;#P newex 208 129 58 196617 pipe 200;#P newex 269 129 58 196617 pipe 100;#P newex 59 37 50 196617 deferlow;#P window linecount 0;#P newex 208 82 50 196617 deferlow;#P window linecount 1;#P newex 136 78 58 196617 del 1000;#P newex 61 79 50 196617 del 4000;#P message 138 124 50 196617 start;#P window linecount 0;#P message 63 121 50 196617 init;#P outlet 250 165 15 0;#P outlet 210 164 15 0;#P newex 208 107 143 196617 t 1 2 3;#P inlet 58 21 15 0;#P newex 60 57 158 196617 t b b b;#P comment 276 86 221 196617 choose here the cameras you want to command;#P connect 8 0 19 0;#P connect 19 0 20 0;#P connect 20 0 21 0;#P connect 2 0 11 0;#P connect 11 0 1 0;#P connect 1 0 8 0;#P connect 8 0 6 0;#P connect 1 1 9 0;#P connect 9 0 14 0;#P connect 14 0 7 0;#P connect 1 2 10 0;#P connect 10 0 3 0;#P connect 3 0 13 0;#P connect 7 0 4 0;#P connect 6 0 4 0;#P connect 13 0 4 0;#P connect 1 2 18 0;#P connect 18 0 17 0;#P connect 7 0 5 0;#P connect 6 0 5 0;#P connect 12 0 5 0;#P connect 3 1 12 0;#P connect 3 2 16 0;#P connect 7 0 15 0;#P connect 6 0 15 0;#P connect 16 0 15 0;#P pop;#P hidden newobj 156 14 66 196628 p INIT;#P user jsui 31 15 120 30 1 0 0 jsui_textbutton.js "start cameras";#P window setfont "Sans Serif" 9.;#P comment 278 769 180 196617 <- choose the client IP;#N vpatcher 10 59 247 232;#P button 99 84 15 0;#P outlet 7 126 15 0;#P inlet 15 50 15 0;#P window setfont "Sans Serif" 9.;#P newex 8 94 67 196617 prepend host;#P newex 121 83 62 196617 prepend set;#P newex 114 51 54 196617 route text;#P newex 50 50 50 196617 loadbang;#P inlet 114 31 15 0;#P outlet 98 127 15 0;#P connect 5 0 7 0;#P connect 6 0 5 0;#P connect 8 0 0 0;#P connect 4 0 0 0;#P connect 2 0 0 0;#P connect 3 0 8 0;#P connect 1 0 3 0;#P connect 3 0 4 0;#P pop;#P hidden newobj 52 767 13 196617 p;#P user textedit 145 767 273 786 32896 3 9 192.168.1.2;#P message 64 768 81 196617 192.168.1.2;#P window linecount 2;#P message 773 777 113 196617 \; cam1-pan_tilt 40 -30 \;;#P message 773 745 113 196617 \; cam1-pan_tilt -30 60 \;;#P message 773 714 113 196617 \; cam1-pan_tilt -120 0 \;;#P window linecount 1;#P message 36 750 64 196617 open server;#N vpatcher 1010 153 1319 642;#P window setfont "Sans Serif" 9.;#P window linecount 1;#P newex 25 431 82 196617 r $1-pan_tilt;#P newex 25 408 82 196617 r $1-tilt;#P newex 25 386 82 196617 r $1-pan;#P comment 180 91 100 196617 cam1 \, cam2 \, Cam3..;#P comment 19 212 100 196617 Other;#P comment 19 133 100 196617 Focus control;#P newex 153 21 80 196617 r start.network;#P newex 123 191 140 196617 r $1-nearlimitdirect;#P newex 19 148 105 196617 r $1-nearfar;#P newex 18 42 100 196617 r $1-power;#P newex 18 21 80 196617 r $1-id;#P newex 19 227 65 196617 r $1_ir.light;#P newex 19 169 93 196617 r $1_focus.switch;#P newex 19 82 95 196617 r $1_dzoom.switch;#P newex 19 190 95 196617 r $1-focus;#P newex 19 103 95 196617 r $1-zoom;#P newex 19 346 88 196617 r $1-iris;#P newex 19 324 111 196617 r $1-aperture;#P newex 19 303 99 196617 r $1-bright;#P newex 19 282 90 196617 r $1-gain;#P newex 166 249 82 196617 r $1-ae;#P newex 167 227 82 196617 r $1-fx;#P newex 19 249 108 196617 r $1-reverse;#P comment 19 67 100 196617 Zoom control;#P comment 18 6 100 196617 Patch control;#P window linecount 0;#P comment 166 73 100 196617 $1 =;#P pop;#P newobj 792 19 95 196617 p adresses_remote;#B color 13;#P hidden inlet 748 768 15 0;#P hidden message 716 768 32 196617 front;#P hidden message 515 581 229 196617 window flags grow \, savewindow 0 \, window exec;#P hidden message 515 565 239 196617 window flags nogrow \, savewindow 1 \, window exec;#N thispatcher;#Q end;#P hidden newobj 656 767 59 196617 thispatcher;#P newex 36 792 74 196617 VISCA_server;#P hidden newex 657 787 104 196617 bgcolor 140 160 180;#P bpatcher 607 50 278 647 0 0 visca-controlpanel.mxt 0 cam3;#P objectname visca-controlpanel[2];#P bpatcher 319 49 277 648 0 0 visca-controlpanel.mxt 0 cam2;#P objectname visca-controlpanel[1];#P user panel 603 46 283 660;#X brgb 160 120 140;#X frgb 0 0 0;#X border 1;#X rounded 0;#X shadow 0;#X done;#P user panel 317 46 283 660;#X brgb 160 140 120;#X frgb 0 0 0;#X border 1;#X rounded 0;#X shadow 0;#X done;#P bpatcher 32 49 280 649 0 0 visca-controlpanel.mxt 0 cam1;#P objectname visca-controlpanel;#P user panel 31 46 283 660;#X brgb 120 140 160;#X frgb 0 0 0;#X border 1;#X rounded 0;#X shadow 0;#X done;#P window setfont "Sans Serif" 36.;#P comment 154 11 439 196644 C a m e r a C o n t r o l;#B frgb 160 180 200;#P window setfont "Sans Serif" 9.;#P comment 101 749 289 196617 <- to configure your serial port;#P user panel 32 743 425 71;#X brgb 191 191 191;#X frgb 0 0 0;#X border 1;#X rounded 0;#X shadow 0;#X done;#P hidden connect 26 0 4 0;#P hidden connect 32 0 34 0;#P connect 17 0 10 0;#P hidden connect 33 0 34 1;#P hidden connect 34 1 32 0;#P hidden connect 34 0 31 0;#P hidden connect 21 0 23 0;#P hidden connect 22 0 23 1;#P hidden connect 23 1 21 0;#P hidden fasten 23 0 10 1 57 788 105 788;#P hidden connect 25 0 26 0;#P hidden connect 26 1 7 0;#P connect 27 0 28 0;#P hidden fasten 26 2 8 0 217 42 612 42;#P hidden connect 14 0 11 0;#P hidden connect 13 0 11 0;#P hidden connect 12 0 11 0;#P hidden connect 15 0 14 0;#P pop;