max v2;#N vpatcher 549 284 973 475;#P origin -17 -71;#P hidden inlet 145 168 15 0;#P window setfont "Sans Serif" 9.;#P window linecount 1;#P hidden newex 61 73 39 196617 t print;#P message 119 30 200 196617 print available devices to the Max Window;#P hidden inlet 3 -7 17 0;#P hidden newex 20 -7 40 196617 t front;#N thispatcher;#Q end;#P hidden newobj 60 -7 61 196617 thispatcher;#P newex 13 16 59 196617 r to_serial;#P hidden newex 13 166 134 196617 udpsend 192.168.1.2 4015;#P newex 24 34 86 196617 udpreceive 4014;#P hidden newex 163 209 98 196617 s cam.serial.choose;#P toggle 42 75 15 0;#P hidden newex 302 192 92 196617 bgcolor 0 255 128;#P message 231 85 14 196617 f;#P message 208 85 14 196617 e;#P message 185 85 14 196617 d;#P hidden button 334 128 15 0;#P hidden newex 334 149 48 196617 delay 10;#P message 163 85 14 196617 c;#P hidden newex 266 150 65 196617 prepend port;#P message 163 151 50 196617 port b;#B color 12;#P hidden newex 266 173 14 196617 _;#P message 141 85 14 196617 b;#P message 119 85 14 196617 a;#P window setfont "Sans Serif" 18.;#P comment 163 48 209 196626 choose keyspan-port;#P user panel 118 49 275 26;#X brgb 255 255 0;#X frgb 0 0 0;#X border 1;#X rounded 0;#X shadow 0;#X done;#P window setfont "Sans Serif" 9.;#P window linecount 4;#P comment 288 84 100 196617 it depend on your machine: a=modem \, b=irDa \, c=usb1 \, d=usb2 \, etc...;#P window linecount 2;#P comment 119 104 164 196617 Default Camera_control Keyspan port: d;#P window linecount 1;#P comment 162 135 100 196617 port choosen:;#P newex 42 53 69 196617 r serial.reply;#P newex 25 142 70 196617 s visca_reply;#P newex 42 96 50 196617 metro 33;#P newex 13 119 98 196617 serial b 9600 8 1 0;#P hidden connect 12 0 0 0;#P connect 23 0 0 0;#P connect 25 0 0 0;#P hidden connect 30 0 0 0;#P connect 1 0 0 0;#P hidden connect 0 0 24 0;#P hidden connect 31 0 24 0;#P hidden connect 28 0 27 0;#P connect 0 0 2 0;#P connect 3 0 21 0;#P connect 21 0 1 0;#P hidden connect 27 0 26 0;#P hidden connect 29 0 30 0;#P hidden fasten 15 0 12 0 339 198 168 198;#P hidden fasten 11 0 12 0 271 198 168 198;#P hidden connect 12 0 22 0;#P hidden fasten 14 0 13 0 168 143 271 143;#P hidden fasten 10 0 13 0 146 143 271 143;#P hidden fasten 9 0 13 0 124 143 271 143;#P hidden fasten 17 0 13 0 190 143 271 143;#P hidden fasten 18 0 13 0 213 143 271 143;#P hidden fasten 19 0 13 0 236 143 271 143;#P hidden connect 13 0 11 0;#P hidden fasten 14 0 16 0 168 143 339 143;#P hidden fasten 10 0 16 0 146 143 339 143;#P hidden fasten 9 0 16 0 124 143 339 143;#P hidden connect 16 0 15 0;#P pop;